<?xml version="1.0" encoding="utf-8"?>
<?xml-stylesheet type="text/xsl" href="rss1.xsl"?>
<rss version="2.0" xmlns:atom="http://www.w3.org/2005/Atom" xmlns:content="http://purl.org/rss/1.0/modules/content/" xmlns:dc="http://purl.org/dc/elements/1.1/" xmlns:media="http://search.yahoo.com/mrss/">
<channel>
 <title>Getty</title>
 <link>http://www.gettyimg.com/</link>
 <atom:link href="http://www.gettyimg.com/" rel="self" type="application/rss+xml" />

 
                <item>
                <title><![CDATA[【Requests】[REQ AUD] - Ayumi Hamasaki- INSPIRE]]></title>
                <link><![CDATA[https://sharemania.us/threads/ayumi-hamasaki-inspire.224511/]]></link>
                <description><![CDATA[<article>
<blockquote class="messageText SelectQuoteContainer ugc baseHtml">
Hello. Can someone please help me get [2004-07-28] Ayumi Hamasaki- INSPIRE album? Thank you very much. I really want to listened to the songs....lol. Please help me get the album. I hope that it can be either in 320kbps or M4A. Thank you very much. <img src="styles/default/xenforo/smilies/shame-48.png" class="mceSmilie" alt=":oops:" title="Oops!    :oops:">
<div class="messageTextEndMarker">&nbsp;</div>
</blockquote>
</article>]]></description>
                <author><![CDATA[koalablue]]></author>
                </item>

                
                <item>
                <title><![CDATA[【Apple Music】WEB-RiP - DJ Antoine - Ma Chérie (feat. The Beat Shakers) (1080p)]]></title>
                <link><![CDATA[https://sharemania.us/threads/dj-antoine-ma-ch%C3%A9rie-feat-the-beat-shakers-1080p.224512/]]></link>
                <description><![CDATA[<article>
<blockquote class="messageText SelectQuoteContainer ugc baseHtml">
<img src="https://i.imgur.com/IkZRFc3.jpg" class="bbCodeImage LbImage" alt="[​IMG]" data-url="https://i.imgur.com/IkZRFc3.jpg" style=""><br>
<br>
<div class="bbCodeBlock bbCodeCode">
<div class="type">Code:</div>
<pre>General
Complete name                  : C:\Users\asus\Desktop\DJ Antoine - Ma Chérie (feat. The Beat Shakers).mp4
Format                         : MPEG-4
Format profile                 : Base Media
Codec ID                       : isom (isom/iso2/avc1/mp41)
File size                      : 157 MiB
Duration                       : 3 min 12 s
Overall bit rate               : 6 872 kb/s
Frame rate                     : 25.000 FPS
Movie name                     : Ma Chérie (feat. The Beat Shakers)
Performer                      : DJ Antoine
Genre                          : Dance
ContentType                    : Music Video
Recorded date                  : 2012-01-30 08:00:00 UTC
Writing application            : Lavf57.29.101

Video
ID                             : 1
Format                         : AVC
Format/Info                    : Advanced Video Codec
Format profile                 : High@L4
Format settings                : CABAC / 5 Ref Frames
Format settings, CABAC         : Yes
Format settings, Reference fra : 5 frames
Codec ID                       : avc1
Codec ID/Info                  : Advanced Video Coding
Duration                       : 3 min 12 s
Bit rate                       : 6 617 kb/s
Width                          : 1 920 pixels
Height                         : 866 pixels
Display aspect ratio           : 2.2:1
Frame rate mode                : Constant
Frame rate                     : 25.000 FPS
Color space                    : YUV
Chroma subsampling             : 4:2:0
Bit depth                      : 8 bits
Scan type                      : Progressive
Bits/(Pixel*Frame)             : 0.159
Stream size                    : 152 MiB (96%)
Color range                    : Limited
Color primaries                : BT.709
Transfer characteristics       : BT.709
Matrix coefficients            : BT.709
Codec configuration box        : avcC

Audio
ID                             : 2
Format                         : AAC LC
Format/Info                    : Advanced Audio Codec Low Complexity
Codec ID                       : mp4a-40-2
Duration                       : 3 min 12 s
Bit rate mode                  : Constant
Bit rate                       : 251 kb/s
Channel(s)                     : 2 channels
Channel layout                 : L R
Sampling rate                  : 48.0 kHz
Frame rate                     : 46.875 FPS (1024 SPF)
Compression mode               : Lossy
Stream size                    : 5.74 MiB (4%)
Default                        : Yes
Alternate group                : 1

</pre>
</div>
<div class="bbCodeBlock bbCodeVfcHH HiddenContent">
<div class="attribution type">Hidden Content:</div>
<blockquote>You must either reply or click 'Like' to see the hidden information contained here.</blockquote>
</div>
<div class="messageTextEndMarker">&nbsp;</div>
</blockquote>
</article>]]></description>
                <author><![CDATA[vitalya3]]></author>
                </item>

                </channel></rss>